<svg width="26" height="26" viewBox="0 0 26 26" fill="none" xmlns="http://www.w3.org/2000/svg">
<path d="M24.7528 1.24772C24.3573 0.852149 23.8877 0.53836 23.3709 0.324275C22.854 0.110189 22.3001 0 21.7407 0C21.1813 0 20.6274 0.110189 20.1105 0.324275C19.5937 0.53836 19.1241 0.852149 18.7286 1.24772L2.70997 17.266C2.23332 17.7427 1.88667 18.3341 1.70576 18.9841L0.0299035 24.9692C-0.00881651 25.1079 -0.00995467 25.2544 0.0266061 25.3938C0.0631668 25.5331 0.136112 25.6602 0.237967 25.762C0.339822 25.8639 0.466924 25.9368 0.606252 25.9734C0.745579 26.01 0.892122 26.0088 1.03087 25.9701L7.01497 24.2943C7.66488 24.1124 8.25697 23.7662 8.73415 23.289L21.9362 10.0883C22.2691 10.448 22.4497 10.9226 22.4402 11.4125C22.4307 11.9025 22.2318 12.3698 21.8853 12.7163L19.7372 14.8644C19.6573 14.9388 19.5933 15.0285 19.5489 15.1282C19.5045 15.2278 19.4806 15.3354 19.4787 15.4445C19.4768 15.5536 19.4968 15.6619 19.5377 15.7631C19.5786 15.8643 19.6394 15.9562 19.7165 16.0333C19.7937 16.1105 19.8856 16.1713 19.9867 16.2121C20.0879 16.253 20.1963 16.2731 20.3054 16.2711C20.4145 16.2692 20.522 16.2453 20.6217 16.2009C20.7214 16.1565 20.8111 16.0925 20.8854 16.0127L23.0336 13.8656C23.6849 13.2143 24.055 12.3337 24.0645 11.4127C24.074 10.4917 23.7222 9.60358 23.0845 8.93894L24.7528 7.2707C25.5514 6.47194 26 5.3887 26 4.25921C26 3.12973 25.5514 2.04649 24.7528 1.24772ZM19.878 2.39599C20.3721 1.90197 21.0423 1.6245 21.7411 1.6246C22.4398 1.6247 23.1099 1.90237 23.604 2.39653C24.098 2.89069 24.3755 3.56085 24.3754 4.25959C24.3753 4.95834 24.0976 5.62842 23.6034 6.12244L7.58587 22.1407C7.30622 22.4204 6.95925 22.6234 6.5784 22.73L1.98416 24.0159L3.27003 19.4228C3.37688 19.042 3.57981 18.6951 3.85934 18.4154L19.878 2.39599Z" fill="#5250C5"/>
</svg>
