<svg width="29" height="28" viewBox="0 0 29 28" fill="none" xmlns="http://www.w3.org/2000/svg">
<path d="M14.125 16.3333C16.6987 16.3333 18.7917 14.2403 18.7917 11.6667C18.7917 9.093 16.6987 7 14.125 7C11.5514 7 9.45837 9.093 9.45837 11.6667C9.45837 14.2403 11.5514 16.3333 14.125 16.3333ZM14.125 9.33333C15.4119 9.33333 16.4584 10.3798 16.4584 11.6667C16.4584 12.9535 15.4119 14 14.125 14C12.8382 14 11.7917 12.9535 11.7917 11.6667C11.7917 10.3798 12.8382 9.33333 14.125 9.33333Z" fill="black"/>
<path d="M13.4483 25.4497C13.6457 25.5907 13.8823 25.6665 14.1249 25.6665C14.3676 25.6665 14.6042 25.5907 14.8016 25.4497C15.1563 25.1988 23.4921 19.18 23.4583 11.6667C23.4583 6.52049 19.2711 2.33333 14.1249 2.33333C8.97877 2.33333 4.79161 6.52049 4.79161 11.6608C4.75777 19.18 13.0936 25.1988 13.4483 25.4497ZM14.1249 4.66666C17.9854 4.66666 21.1249 7.80616 21.1249 11.6725C21.1494 16.8502 16.0056 21.4993 14.1249 23.0242C12.2454 21.4982 7.10044 16.8478 7.12494 11.6667C7.12494 7.80616 10.2644 4.66666 14.1249 4.66666Z" fill="black"/>
</svg>
