<svg width="19" height="25" viewBox="0 0 19 25" fill="none" xmlns="http://www.w3.org/2000/svg">
<path d="M9.33341 14.8333C11.9071 14.8333 14.0001 12.7403 14.0001 10.1667C14.0001 7.593 11.9071 5.5 9.33341 5.5C6.75975 5.5 4.66675 7.593 4.66675 10.1667C4.66675 12.7403 6.75975 14.8333 9.33341 14.8333ZM9.33341 7.83333C10.6202 7.83333 11.6667 8.87983 11.6667 10.1667C11.6667 11.4535 10.6202 12.5 9.33341 12.5C8.04658 12.5 7.00008 11.4535 7.00008 10.1667C7.00008 8.87983 8.04658 7.83333 9.33341 7.83333Z" fill="#5250C5"/>
<path d="M8.65677 23.9493C8.85422 24.0904 9.0908 24.1662 9.33344 24.1662C9.57607 24.1662 9.81265 24.0904 10.0101 23.9493C10.3648 23.6985 18.7006 17.6797 18.6668 10.1663C18.6668 5.02017 14.4796 0.833008 9.33344 0.833008C4.18727 0.833008 0.000102711 5.02017 0.000102711 10.1605C-0.0337306 17.6797 8.3021 23.6985 8.65677 23.9493ZM9.33344 3.16634C13.1939 3.16634 16.3334 6.30584 16.3334 10.1722C16.3579 15.3498 11.2141 19.999 9.33344 21.5238C7.45394 19.9978 2.30894 15.3475 2.33344 10.1663C2.33344 6.30584 5.47294 3.16634 9.33344 3.16634Z" fill="#5250C5"/>
</svg>
