<svg width="14" height="15" viewBox="0 0 14 15" fill="none" xmlns="http://www.w3.org/2000/svg">
<g clip-path="url(#clip0_435_4909)">
<path d="M11.4075 4.65554C11.4075 3.94531 11.1705 3.37003 10.6966 2.92969C10.2226 2.48935 9.5992 2.26918 8.8263 2.26918H5.32641V7.0419H8.8263C9.5992 7.0419 10.2226 6.82173 10.6966 6.38139C11.1705 5.94105 11.4075 5.36577 11.4075 4.65554ZM13.9996 4.65554C13.9996 6.02628 13.5384 7.14489 12.616 8.01136C11.6937 8.87784 10.5033 9.31108 9.04505 9.31108H5.32641V10.5682H10.8497C10.9518 10.5682 11.0356 10.6001 11.1012 10.6641C11.1669 10.728 11.1997 10.8097 11.1997 10.9091V12.2727C11.1997 12.3722 11.1669 12.4538 11.1012 12.5178C11.0356 12.5817 10.9518 12.6136 10.8497 12.6136H5.32641V14.6591C5.32641 14.7585 5.29177 14.8402 5.2225 14.9041C5.15323 14.968 5.07121 15 4.97642 15H3.14991C3.04783 15 2.96398 14.968 2.89835 14.9041C2.83273 14.8402 2.79992 14.7585 2.79992 14.6591V12.6136H0.34999C0.247909 12.6136 0.164058 12.5817 0.0984346 12.5178C0.0328115 12.4538 0 12.3722 0 12.2727V10.9091C0 10.8097 0.0328115 10.728 0.0984346 10.6641C0.164058 10.6001 0.247909 10.5682 0.34999 10.5682H2.79992V9.31108H0.34999C0.247909 9.31108 0.164058 9.27912 0.0984346 9.2152C0.0328115 9.15128 0 9.0696 0 8.97017V7.38281C0 7.29048 0.0328115 7.21058 0.0984346 7.14311C0.164058 7.07564 0.247909 7.0419 0.34999 7.0419H2.79992V0.340909C2.79992 0.241477 2.83273 0.159801 2.89835 0.0958807C2.96398 0.0319602 3.04783 0 3.14991 0H9.04505C10.5033 0 11.6937 0.433239 12.616 1.29972C13.5384 2.16619 13.9996 3.2848 13.9996 4.65554Z" fill="#78B453"/>
</g>
<defs>
<clipPath id="clip0_435_4909">
<rect width="14" height="15" fill="white"/>
</clipPath>
</defs>
</svg>
