<svg width="34" height="21" viewBox="0 0 34 21" fill="none" xmlns="http://www.w3.org/2000/svg">
<path d="M1.3335 1.25H18.0478" stroke="white" stroke-width="2" stroke-linecap="round"/>
<path d="M1.3335 10.25H12.9049" stroke="white" stroke-width="2" stroke-linecap="round"/>
<path d="M1.3335 19.75H18.3335" stroke="white" stroke-width="2" stroke-linecap="round"/>
<path d="M23.249 4.5C22.1567 4.5 21.089 4.8239 20.1808 5.43074C19.2726 6.03758 18.5647 6.90011 18.1467 7.90925C17.7287 8.91839 17.6193 10.0288 17.8324 11.1001C18.0455 12.1714 18.5715 13.1555 19.3439 13.9278C20.1162 14.7002 21.1003 15.2262 22.1716 15.4393C23.2429 15.6524 24.3533 15.543 25.3625 15.125C26.3716 14.707 27.2341 13.9991 27.841 13.0909C28.4478 12.1827 28.7717 11.115 28.7717 10.0227C28.7716 8.55801 28.1897 7.15335 27.154 6.11766C26.1184 5.08198 24.7137 4.50009 23.249 4.5Z" stroke="white" stroke-width="2" stroke-miterlimit="10"/>
<path d="M27.3694 14.1426L31.2264 17.9996" stroke="white" stroke-width="2" stroke-miterlimit="10" stroke-linecap="round"/>
</svg>
