<svg width="25" height="25" viewBox="0 0 25 25" fill="none" xmlns="http://www.w3.org/2000/svg">
<path d="M18.125 14.75H17.335L17.055 14.48C18.0689 13.304 18.6261 11.8027 18.625 10.25C18.625 8.96442 18.2438 7.70772 17.5296 6.6388C16.8153 5.56988 15.8002 4.73676 14.6124 4.24479C13.4247 3.75282 12.1178 3.62409 10.8569 3.8749C9.59604 4.1257 8.43785 4.74477 7.52881 5.65381C6.61977 6.56285 6.0007 7.72104 5.7499 8.98191C5.49909 10.2428 5.62782 11.5497 6.11979 12.7374C6.61176 13.9252 7.44488 14.9403 8.5138 15.6546C9.58272 16.3688 10.8394 16.75 12.125 16.75C13.735 16.75 15.215 16.16 16.355 15.18L16.625 15.46V16.25L21.625 21.24L23.115 19.75L18.125 14.75ZM12.125 14.75C9.635 14.75 7.625 12.74 7.625 10.25C7.625 7.76 9.635 5.75 12.125 5.75C14.615 5.75 16.625 7.76 16.625 10.25C16.625 12.74 14.615 14.75 12.125 14.75Z" fill="white"/>
</svg>
