<svg width="115" height="65" viewBox="0 0 115 65" fill="none" xmlns="http://www.w3.org/2000/svg">
<path d="M72.478 36.7387V12.3213H75.4905L88.1629 31.4991V12.3213H91.1753V36.7387H88.1629L75.4905 17.5609V36.7387H72.478ZM95.8814 36.7387V12.3213H111.213V15.1869H98.8938V22.8343H109.193V25.7H98.8938V33.873H111.213V36.7387H95.8814Z" fill="#212121"/>
<path d="M10.9558 37.2479C9.6656 37.2479 8.46511 37.0783 7.35438 36.7392C6.25487 36.4001 5.27877 35.914 4.42609 35.2809C3.57341 34.6479 2.86658 33.8849 2.3056 32.9918C1.75584 32.0988 1.37999 31.0927 1.17804 29.9736L4.27463 29.4818C4.66731 31.0531 5.45267 32.2627 6.63072 33.1105C7.81999 33.9583 9.31219 34.3823 11.1073 34.3823C11.9712 34.3823 12.7566 34.2805 13.4634 34.077C14.1815 33.8623 14.7985 33.5627 15.3146 33.1783C15.8307 32.794 16.229 32.3418 16.5095 31.8218C16.79 31.2905 16.9302 30.7027 16.9302 30.0583C16.9302 28.374 15.8027 27.1927 13.5476 26.5144L7.37121 24.6662C3.87072 23.6149 2.12048 21.6083 2.12048 18.6466C2.12048 17.6292 2.32804 16.7023 2.74316 15.8657C3.15828 15.0292 3.73609 14.3114 4.47658 13.7123C5.21706 13.1131 6.1034 12.6496 7.1356 12.3218C8.1678 11.994 9.30097 11.8301 10.5351 11.8301C11.7693 11.8301 12.908 11.994 13.9515 12.3218C14.9949 12.6496 15.9149 13.1188 16.7115 13.7292C17.5193 14.3396 18.1924 15.0857 18.731 15.9675C19.2695 16.8492 19.651 17.8496 19.8754 18.9688L16.6946 19.5283C16.5712 18.7823 16.33 18.1096 15.971 17.5105C15.6232 16.9114 15.18 16.4083 14.6415 16.0014C14.1141 15.5831 13.4971 15.2609 12.7902 15.0349C12.0946 14.8088 11.3317 14.6957 10.5015 14.6957C9.71609 14.6957 8.99804 14.7918 8.34731 14.984C7.7078 15.1762 7.15804 15.4475 6.69804 15.7979C6.24926 16.137 5.90145 16.544 5.65462 17.0188C5.4078 17.4823 5.28438 17.9853 5.28438 18.5279C5.28438 18.9575 5.35731 19.3475 5.50316 19.6979C5.66023 20.037 5.90145 20.3536 6.22682 20.6475C6.55219 20.9301 6.97292 21.1901 7.48902 21.4275C8.00511 21.6536 8.6278 21.874 9.35706 22.0888L13.9346 23.4283C17.9961 24.5814 20.0268 26.7462 20.0268 29.9227C20.0268 31.0192 19.808 32.0196 19.3705 32.924C18.9441 33.817 18.3327 34.5857 17.5361 35.2301C16.7395 35.8744 15.7858 36.3718 14.6751 36.7223C13.5644 37.0727 12.3246 37.2479 10.9558 37.2479ZM28.9592 36.7392V15.1875H21.5375V12.3218H39.2924V15.1875H31.9717V36.7392H28.9592Z" fill="#212121"/>
<path d="M7.08306 59.3478H5.80642L3.00861 49.4952H4.27849L6.44472 57.3568L8.61098 49.4952H9.88087L12.0539 57.3568L14.2202 49.4952H15.49L12.6922 59.3478H11.4156L9.24932 51.5546L7.08306 59.3478ZM28.0757 59.553C25.149 59.553 23.5125 57.4594 23.5125 54.4214C23.5125 51.3836 25.149 49.29 28.0757 49.29C31.0026 49.29 32.6393 51.3836 32.6393 54.4214C32.6393 57.4594 31.0026 59.553 28.0757 59.553ZM28.0757 58.39C30.2624 58.39 31.3557 56.782 31.3557 54.4214C31.3557 52.061 30.2624 50.453 28.0757 50.453C25.8892 50.453 24.8095 52.061 24.7959 54.4214C24.7823 56.782 25.8892 58.39 28.0757 58.39ZM47.4759 59.3478L45.1061 55.7078H42.8922V59.3478H41.6766V49.4952H45.3776C47.5099 49.4952 48.6848 50.6788 48.6848 52.6014C48.6848 54.1684 47.8969 55.2494 46.4437 55.5914L48.8885 59.3478H47.4759ZM42.8922 50.6514V54.5514H45.3709C46.6883 54.5514 47.4487 53.833 47.4487 52.6014C47.4487 51.37 46.6883 50.6514 45.3709 50.6514H42.8922ZM58.0509 59.3478V49.4952H59.2665V54.141L63.5445 49.4952H65.0656L60.6246 54.2778L65.412 59.3478H63.8503L59.2665 54.5172V59.3478H58.0509ZM75.3918 59.3478H74.1764V49.4952H75.3918V59.3478ZM86.3117 59.3478H85.0961V49.4952H86.3117L91.425 57.2336V49.4952H92.6406V59.3478H91.425L86.3117 51.6094V59.3478ZM107.143 59.512C105.504 59.512 104.255 59.0833 103.395 58.2256C102.535 57.3591 102.104 56.1275 102.104 54.531C102.104 53.3633 102.317 52.4191 102.743 51.6984C103.177 50.9685 103.761 50.4394 104.495 50.111C105.228 49.7733 106.052 49.6046 106.967 49.6046C107.537 49.6046 108.049 49.6639 108.501 49.7826C108.954 49.892 109.384 50.0607 109.792 50.2888V51.3562L109.52 51.493C109.185 51.2285 108.814 51.0233 108.406 50.8772C107.999 50.7223 107.496 50.6446 106.899 50.6446C106.202 50.6446 105.581 50.7723 105.038 51.0278C104.504 51.2833 104.083 51.6984 103.775 52.273C103.476 52.8478 103.327 53.6188 103.327 54.5856C103.327 55.863 103.63 56.83 104.237 57.4868C104.843 58.1436 105.799 58.472 107.102 58.472C107.628 58.472 108.098 58.4126 108.515 58.2942C108.931 58.1665 109.325 57.9384 109.697 57.61L110.077 57.8836V58.9372C109.678 59.1107 109.239 59.2475 108.759 59.3478C108.288 59.4572 107.75 59.512 107.143 59.512ZM108.922 58.9372V54.7226H110.077V58.9372H108.922ZM106.6 55.3656V54.2162H110.077V55.2288H107.415L106.6 55.3656Z" fill="#212121"/>
<path d="M60.3049 35.3265H47.6829L42.0732 25.4352L47.6829 14.1309H60.3049L65.9146 25.4352L60.3049 35.3265Z" stroke="#5250C5" stroke-width="3"/>
</svg>
