<svg width="122" height="52" viewBox="0 0 122 52" fill="none" xmlns="http://www.w3.org/2000/svg">
<rect x="0.125" width="121" height="52" rx="9" fill="#D9D9D9"/>
<path d="M30.4979 31V29.5724L30.8175 29.5618C31.2507 29.5511 31.5916 29.4038 31.8402 29.1197C32.0923 28.8356 32.2752 28.3775 32.3888 27.7454C32.506 27.1133 32.5842 26.2699 32.6232 25.2152L32.8097 20.0909H39.7077V31H38.0831V21.4865H34.3597L34.1893 25.652C34.1431 26.8203 34.0259 27.8022 33.8377 28.5977C33.6495 29.3896 33.3299 29.9879 32.8789 30.3928C32.4315 30.7976 31.794 31 30.9666 31H30.4979ZM45.4233 31.1651C44.6563 31.1651 43.9869 30.9893 43.4151 30.6378C42.8434 30.2862 42.3995 29.7944 42.0835 29.1623C41.7674 28.5302 41.6094 27.7915 41.6094 26.9464C41.6094 26.0977 41.7674 25.3555 42.0835 24.7198C42.3995 24.0842 42.8434 23.5906 43.4151 23.239C43.9869 22.8874 44.6563 22.7116 45.4233 22.7116C46.1903 22.7116 46.8597 22.8874 47.4315 23.239C48.0032 23.5906 48.4471 24.0842 48.7631 24.7198C49.0792 25.3555 49.2372 26.0977 49.2372 26.9464C49.2372 27.7915 49.0792 28.5302 48.7631 29.1623C48.4471 29.7944 48.0032 30.2862 47.4315 30.6378C46.8597 30.9893 46.1903 31.1651 45.4233 31.1651ZM45.4286 29.8281C45.9258 29.8281 46.3377 29.6967 46.6644 29.4339C46.9911 29.1712 47.2326 28.8214 47.3888 28.3846C47.5487 27.9478 47.6286 27.4666 47.6286 26.9411C47.6286 26.419 47.5487 25.9396 47.3888 25.5028C47.2326 25.0625 46.9911 24.7092 46.6644 24.4428C46.3377 24.1765 45.9258 24.0433 45.4286 24.0433C44.9279 24.0433 44.5124 24.1765 44.1822 24.4428C43.8555 24.7092 43.6122 25.0625 43.4524 25.5028C43.2962 25.9396 43.218 26.419 43.218 26.9411C43.218 27.4666 43.2962 27.9478 43.4524 28.3846C43.6122 28.8214 43.8555 29.1712 44.1822 29.4339C44.5124 29.6967 44.9279 29.8281 45.4286 29.8281ZM56.2458 22.8182V24.1925H52.5864V31H51.015V22.8182H56.2458ZM60.9946 31.1651C60.2275 31.1651 59.5581 30.9893 58.9864 30.6378C58.4147 30.2862 57.9708 29.7944 57.6547 29.1623C57.3387 28.5302 57.1807 27.7915 57.1807 26.9464C57.1807 26.0977 57.3387 25.3555 57.6547 24.7198C57.9708 24.0842 58.4147 23.5906 58.9864 23.239C59.5581 22.8874 60.2275 22.7116 60.9946 22.7116C61.7616 22.7116 62.431 22.8874 63.0028 23.239C63.5745 23.5906 64.0184 24.0842 64.3344 24.7198C64.6505 25.3555 64.8085 26.0977 64.8085 26.9464C64.8085 27.7915 64.6505 28.5302 64.3344 29.1623C64.0184 29.7944 63.5745 30.2862 63.0028 30.6378C62.431 30.9893 61.7616 31.1651 60.9946 31.1651ZM60.9999 29.8281C61.4971 29.8281 61.909 29.6967 62.2357 29.4339C62.5624 29.1712 62.8039 28.8214 62.9601 28.3846C63.1199 27.9478 63.1998 27.4666 63.1998 26.9411C63.1998 26.419 63.1199 25.9396 62.9601 25.5028C62.8039 25.0625 62.5624 24.7092 62.2357 24.4428C61.909 24.1765 61.4971 24.0433 60.9999 24.0433C60.4992 24.0433 60.0837 24.1765 59.7535 24.4428C59.4268 24.7092 59.1835 25.0625 59.0237 25.5028C58.8675 25.9396 58.7893 26.419 58.7893 26.9411C58.7893 27.4666 58.8675 27.9478 59.0237 28.3846C59.1835 28.8214 59.4268 29.1712 59.7535 29.4339C60.0837 29.6967 60.4992 29.8281 60.9999 29.8281ZM65.6009 24.1925V22.8182H72.5043V24.1925H69.8356V31H68.2802V24.1925H65.6009ZM75.7496 28.7681L79.3557 22.8182H81.0709V31H79.5102V25.0447L75.92 31H74.1888V22.8182H75.7496V28.7681ZM83.2123 31V22.8182H89.8866V31H88.3259V24.1925H84.7623V31H83.2123Z" fill="black"/>
</svg>
