<svg width="46" height="46" viewBox="0 0 46 46" fill="none" xmlns="http://www.w3.org/2000/svg">
<g id="mdi:hide-outline">
<path id="Vector" d="M3.83268 10.1002L6.28602 7.66602L38.3327 39.7127L35.8985 42.166L29.9952 36.2627C27.791 36.991 25.4527 37.3743 22.9993 37.3743C13.416 37.3743 5.23185 31.4135 1.91602 22.9993C3.23852 19.626 5.34685 16.6552 8.03018 14.2977L3.83268 10.1002ZM22.9993 17.2493C24.5243 17.2493 25.9869 17.8552 27.0652 18.9335C28.1435 20.0118 28.7493 21.4744 28.7493 22.9993C28.7503 23.6521 28.6401 24.3003 28.4235 24.916L21.0827 17.5752C21.6984 17.3586 22.3466 17.2484 22.9993 17.2493ZM22.9993 8.62435C32.5827 8.62435 40.7668 14.5852 44.0827 22.9993C42.5184 26.973 39.8602 30.422 36.416 32.9468L33.6943 30.206C36.3449 28.3725 38.4826 25.8917 39.9043 22.9993C38.3548 19.8367 35.9492 17.1722 32.9608 15.3087C29.9724 13.4452 26.5212 12.4575 22.9993 12.4577C20.9102 12.4577 18.8593 12.8027 16.9427 13.416L13.991 10.4835C16.751 9.29518 19.7985 8.62435 22.9993 8.62435ZM6.09435 22.9993C7.64386 26.162 10.0495 28.8265 13.0379 30.69C16.0263 32.5535 19.4775 33.5412 22.9993 33.541C24.3218 33.541 25.6252 33.4069 26.8327 33.1385L22.4627 28.7493C21.129 28.6064 19.8844 28.0112 18.936 27.0627C17.9875 26.1143 17.3923 24.8697 17.2493 23.536L10.7327 17.0002C8.83518 18.6293 7.24435 20.661 6.09435 22.9993Z" fill="#5250C5" fill-opacity="0.6"/>
</g>
</svg>
